<mxfile host="app.diagrams.net" agent="Mozilla/5.0 (Macintosh; Intel Mac OS X 10_15_7) AppleWebKit/537.36 (KHTML, like Gecko) Chrome/137.0.0.0 Safari/537.36" version="28.0.7">
  <diagram name="PÃ¡gina-1" id="8ASkdALf-VD2edcLvi12">
    <mxGraphModel dx="1251" dy="681" grid="1" gridSize="10" guides="1" tooltips="1" connect="1" arrows="1" fold="1" page="1" pageScale="1" pageWidth="2339" pageHeight="3300" math="0" shadow="0">
      <root>
        <mxCell id="0" />
        <mxCell id="1" parent="0" />
        <mxCell id="WbB55Txo78S8NqmSutHV-7" style="edgeStyle=orthogonalEdgeStyle;rounded=0;orthogonalLoop=1;jettySize=auto;html=1;" edge="1" parent="1" source="WbB55Txo78S8NqmSutHV-1" target="WbB55Txo78S8NqmSutHV-4">
          <mxGeometry relative="1" as="geometry">
            <Array as="points">
              <mxPoint x="410" y="300" />
              <mxPoint x="410" y="80" />
              <mxPoint x="790" y="80" />
            </Array>
          </mxGeometry>
        </mxCell>
        <mxCell id="WbB55Txo78S8NqmSutHV-8" value="Axios" style="edgeLabel;html=1;align=center;verticalAlign=middle;resizable=0;points=[];" vertex="1" connectable="0" parent="WbB55Txo78S8NqmSutHV-7">
          <mxGeometry x="0.2029" y="1" relative="1" as="geometry">
            <mxPoint as="offset" />
          </mxGeometry>
        </mxCell>
        <mxCell id="WbB55Txo78S8NqmSutHV-9" value="Endpoint Geosales&lt;div&gt;&lt;br&gt;&lt;/div&gt;" style="edgeLabel;html=1;align=center;verticalAlign=middle;resizable=0;points=[];" vertex="1" connectable="0" parent="WbB55Txo78S8NqmSutHV-7">
          <mxGeometry x="0.313" y="3" relative="1" as="geometry">
            <mxPoint x="87" y="23" as="offset" />
          </mxGeometry>
        </mxCell>
        <mxCell id="WbB55Txo78S8NqmSutHV-1" value="GEOSALES" style="whiteSpace=wrap;html=1;aspect=fixed;fillColor=#008a00;fontColor=#ffffff;strokeColor=#005700;" vertex="1" parent="1">
          <mxGeometry x="120" y="180" width="240" height="240" as="geometry" />
        </mxCell>
        <mxCell id="WbB55Txo78S8NqmSutHV-2" value="&lt;h1 style=&quot;margin-top: 0px;&quot;&gt;Logicas de Negocio&lt;/h1&gt;&lt;div&gt;estaran en geosales&lt;/div&gt;" style="text;html=1;whiteSpace=wrap;overflow=hidden;rounded=0;" vertex="1" parent="1">
          <mxGeometry x="120" y="440" width="180" height="120" as="geometry" />
        </mxCell>
        <mxCell id="WbB55Txo78S8NqmSutHV-4" value="BFF - Nestjs TS" style="sketch=0;outlineConnect=0;fontColor=#232F3E;gradientColor=none;fillColor=#ED7100;strokeColor=none;dashed=0;verticalLabelPosition=bottom;verticalAlign=top;align=center;html=1;fontSize=12;fontStyle=0;aspect=fixed;pointerEvents=1;shape=mxgraph.aws4.lambda_function;" vertex="1" parent="1">
          <mxGeometry x="740" y="120" width="100" height="100" as="geometry" />
        </mxCell>
        <mxCell id="WbB55Txo78S8NqmSutHV-6" style="edgeStyle=orthogonalEdgeStyle;rounded=0;orthogonalLoop=1;jettySize=auto;html=1;" edge="1" parent="1" source="WbB55Txo78S8NqmSutHV-5" target="WbB55Txo78S8NqmSutHV-4">
          <mxGeometry relative="1" as="geometry" />
        </mxCell>
        <mxCell id="WbB55Txo78S8NqmSutHV-5" value="" style="sketch=0;points=[[0,0,0],[0.25,0,0],[0.5,0,0],[0.75,0,0],[1,0,0],[0,1,0],[0.25,1,0],[0.5,1,0],[0.75,1,0],[1,1,0],[0,0.25,0],[0,0.5,0],[0,0.75,0],[1,0.25,0],[1,0.5,0],[1,0.75,0]];outlineConnect=0;fontColor=#232F3E;fillColor=#8C4FFF;strokeColor=#ffffff;dashed=0;verticalLabelPosition=bottom;verticalAlign=top;align=center;html=1;fontSize=12;fontStyle=0;aspect=fixed;shape=mxgraph.aws4.resourceIcon;resIcon=mxgraph.aws4.api_gateway;" vertex="1" parent="1">
          <mxGeometry x="540" y="262" width="78" height="78" as="geometry" />
        </mxCell>
        <mxCell id="WbB55Txo78S8NqmSutHV-11" style="edgeStyle=orthogonalEdgeStyle;rounded=0;orthogonalLoop=1;jettySize=auto;html=1;" edge="1" parent="1" source="WbB55Txo78S8NqmSutHV-10" target="WbB55Txo78S8NqmSutHV-5">
          <mxGeometry relative="1" as="geometry" />
        </mxCell>
        <mxCell id="WbB55Txo78S8NqmSutHV-10" value="React - VITE TS" style="image;aspect=fixed;perimeter=ellipsePerimeter;html=1;align=center;shadow=0;dashed=0;spacingTop=3;image=img/lib/active_directory/laptop_client.svg;" vertex="1" parent="1">
          <mxGeometry x="543" y="520" width="72" height="80" as="geometry" />
        </mxCell>
        <mxCell id="WbB55Txo78S8NqmSutHV-12" value="AWS Account" style="points=[[0,0],[0.25,0],[0.5,0],[0.75,0],[1,0],[1,0.25],[1,0.5],[1,0.75],[1,1],[0.75,1],[0.5,1],[0.25,1],[0,1],[0,0.75],[0,0.5],[0,0.25]];outlineConnect=0;gradientColor=none;html=1;whiteSpace=wrap;fontSize=12;fontStyle=0;container=1;pointerEvents=0;collapsible=0;recursiveResize=0;shape=mxgraph.aws4.group;grIcon=mxgraph.aws4.group_account;strokeColor=#CD2264;fillColor=none;verticalAlign=top;align=left;spacingLeft=30;fontColor=#CD2264;dashed=0;" vertex="1" parent="1">
          <mxGeometry x="470" y="100" width="690" height="260" as="geometry" />
        </mxCell>
      </root>
    </mxGraphModel>
  </diagram>
</mxfile>
